# xmcd
#
# Track frame offsets:
#	150
#	13811
#	26665
#	41352
#	58661
#	72964
#	84887
#	100292
#	112968
#	131342
#	147182
#	159684
#	173882
#	186273
#	201668
#	215096
#	234863
#	257142
#	271690
#	287684
#
# Disc length: 4046 seconds
#
# Revision: 1
# Processed by: cddbd v1.5.1PL0 Copyright (c) Steve Scherf et al.
# Submitted via: audiograbber 1.82.02
#
DISCID=200fcc14
DTITLE=NELSON and VALMIR - As 20 Melhores
DYEAR=1900
DGENRE=Evangélico
TTITLE0=Manchete
TTITLE1=É Fogo Santo
TTITLE2=Nunca Mais Solidão
TTITLE3=Principe da Paz
TTITLE4=Mar
TTITLE5=Quando Ele Fala
TTITLE6=O Fogo Cai
TTITLE7=Ele Voltou
TTITLE8=Agradecimentos
TTITLE9=Maravilha
TTITLE10=Você Orou
TTITLE11=Quando a Trombeta Tocar
TTITLE12=Ele me Ama
TTITLE13=Alem das Estrelas
TTITLE14=Maravilhoso
TTITLE15=Glória
TTITLE16=Paraiso
TTITLE17=Fantástico
TTITLE18=Menino de Rua
TTITLE19=Mulheres
EXTD=
EXTT0=
EXTT1=
EXTT2=
EXTT3=
EXTT4=
EXTT5=
EXTT6=
EXTT7=
EXTT8=
EXTT9=
EXTT10=
EXTT11=
EXTT12=
EXTT13=
EXTT14=
EXTT15=
EXTT16=
EXTT17=
EXTT18=
EXTT19=
PLAYORDER=
